<svg width="21" height="36" viewBox="0 0 21 36" fill="none" xmlns="http://www.w3.org/2000/svg">
<path d="M10.125 29.25C9.495 29.25 9 28.755 9 28.125V7.875C9 7.245 9.495 6.75 10.125 6.75C10.755 6.75 11.25 7.245 11.25 7.875V28.125C11.25 28.755 10.755 29.25 10.125 29.25Z" fill="#0F0F0F"/>
<path d="M10.125 31.5C9.97745 31.5018 9.83117 31.4727 9.69554 31.4146C9.55991 31.3565 9.43795 31.2706 9.3375 31.1625L1.4625 23.2875C1.0125 22.8375 1.0125 22.14 1.4625 21.69C1.9125 21.24 2.61 21.24 3.06 21.69L10.1475 28.7775L17.235 21.69C17.685 21.24 18.3825 21.24 18.8325 21.69C19.2825 22.14 19.2825 22.8375 18.8325 23.2875L10.9575 31.1625C10.7325 31.3875 10.44 31.5 10.17 31.5H10.125Z" fill="#0F0F0F"/>
</svg>
