<svg width="36" height="36" viewBox="0 0 36 36" fill="none" xmlns="http://www.w3.org/2000/svg">
<path d="M19.1247 24.285L23.2047 20.205C23.3077 20.0945 23.4319 20.0058 23.5699 19.9443C23.7079 19.8828 23.8569 19.8498 24.008 19.8471C24.159 19.8444 24.3091 19.8722 24.4491 19.9288C24.5892 19.9854 24.7165 20.0696 24.8233 20.1764C24.9301 20.2833 25.0143 20.4105 25.0709 20.5506C25.1275 20.6907 25.1553 20.8407 25.1526 20.9918C25.15 21.1428 25.1169 21.2918 25.0554 21.4298C24.9939 21.5678 24.9053 21.692 24.7947 21.795L18.7947 27.795C18.5838 28.0057 18.2979 28.124 17.9997 28.124C17.7016 28.124 17.4157 28.0057 17.2047 27.795L11.2047 21.795C11.0942 21.692 11.0056 21.5678 10.9441 21.4298C10.8826 21.2918 10.8495 21.1428 10.8469 20.9918C10.8442 20.8407 10.872 20.6907 10.9286 20.5506C10.9851 20.4105 11.0694 20.2833 11.1762 20.1764C11.283 20.0696 11.4103 19.9854 11.5503 19.9288C11.6904 19.8722 11.8405 19.8444 11.9915 19.8471C12.1426 19.8498 12.2915 19.8828 12.4295 19.9443C12.5675 20.0058 12.6917 20.0945 12.7947 20.205L16.8747 24.285V9.75C16.8747 9.45163 16.9933 9.16548 17.2042 8.9545C17.4152 8.74353 17.7014 8.625 17.9997 8.625C18.2981 8.625 18.5843 8.74353 18.7952 8.9545C19.0062 9.16548 19.1247 9.45163 19.1247 9.75V24.285Z" fill="#0F0F0F"/>
</svg>
